# xmcd
#
# Track frame offsets:
# 150
# 17410
# 40512
# 61428
# 77011
# 94222
# 112953
# 132225
# 153905
# 167635
# 185924
# 209389
# 230017
# 251213
# 269893
# 294253
# 313421
# 324653
#
# Disc length: 4582 seconds
#
# Revision: 0
# Processed by: cddbd v1.4PL0 Copyright (c) Steve Scherf et al.
# Submitted via: Audion 3.0.2 (http://www.panic.com/audion/)
#
DISCID=0711e412
DTITLE=2pac - ddsd
DYEAR=1900
DGENRE=
TTITLE0=sd
TTITLE1=dfs
TTITLE2=dfs
TTITLE3=dfs
TTITLE4=dsf
TTITLE5=dfs
TTITLE6=dfs
TTITLE7=dfs
TTITLE8=dfs
TTITLE9=dfs
TTITLE10=d
TTITLE11=dd
TTITLE12=d
TTITLE13=dsdd
TTITLE14=df
TTITLE15=dfs
TTITLE16=dsf
TTITLE17=dfs
EXTD=
EXTT0=
EXTT1=
EXTT2=
EXTT3=
EXTT4=
EXTT5=
EXTT6=
EXTT7=
EXTT8=
EXTT9=
EXTT10=
EXTT11=
EXTT12=
EXTT13=
EXTT14=
EXTT15=
EXTT16=
EXTT17=
PLAYORDER=
